# xmcd CD database file
#
# Track frame offsets:
#	152
#	14731
#	30146
#	40121
#	57647
#	74128
#	88930
#	104310
#	119098
#	134346
#	145136
#
# Disc length: 2172 seconds
#
# Revision: 0
# Processed by: cddbd v1.5PL3 Copyright (c) Steve Scherf et al.
# Submitted via: CDex 1.51
#
DISCID=a6087a0b
DTITLE=Rizdales - Another Payday Night
DYEAR=2003
DGENRE=Country
TTITLE0=Another Payday Night
TTITLE1=The Drink's Not On Me
TTITLE2=This Bed Was Made For Two
TTITLE3=A Little Voodoo
TTITLE4=I Don't Miss You
TTITLE5=Sadder Than You Know
TTITLE6=How Cruel You Are
TTITLE7=Love Song no. 1
TTITLE8=The Marrying Kind
TTITLE9=Treat Your Woman Right
TTITLE10=This Is The End Of The World
EXTD=YEAR: 2003
EXTT0=
EXTT1=
EXTT2=
EXTT3=
EXTT4=
EXTT5=
EXTT6=
EXTT7=
EXTT8=
EXTT9=
EXTT10=
PLAYORDER=
